Coordinates
version=1
nRows=13
nColumns=40
inDegrees=yes

Units are S.I. units (second, meters, Newtons, ...)
Angles are in degrees.

endheader
time	pelvis_tilt	pelvis_list	pelvis_rotation	pelvis_tx	pelvis_ty	pelvis_tz	hip_flexion_r	hip_adduction_r	hip_rotation_r	knee_angle_r	knee_angle_r_beta	ankle_angle_r	subtalar_angle_r	mtp_angle_r	hip_flexion_l	hip_adduction_l	hip_rotation_l	knee_angle_l	knee_angle_l_beta	ankle_angle_l	subtalar_angle_l	mtp_angle_l	lumbar_extension	lumbar_bending	lumbar_rotation	arm_flex_r	arm_add_r	arm_rot_r	elbow_flex_r	pro_sup_r	wrist_flex_r	wrist_dev_r	arm_flex_l	arm_add_l	arm_rot_l	elbow_flex_l	pro_sup_l	wrist_flex_l	wrist_dev_l
     20.88000000	     -6.14457852	     -7.38646546	      2.40351172	      1.02555284	      0.91633502	      0.49270998	     -0.49419125	      7.57599051	    -17.44613395	      6.74592805	      6.74592805	     16.04450388	      8.22893046	     -3.23671011	     36.72391793	    -11.18467849	     -0.27722520	     21.35098078	     21.35098078	      4.37216612	     -7.41928700	     11.99098931	    -10.47703229	      7.12921542	      5.18568266	     52.37762976	    -15.44877343	      6.10270294	     99.58636690	     44.09300677	      0.00000000	      0.00000000	    -20.55251822	     -8.28150294	      6.77233146	     30.37612209	     45.14157191	      0.00000000	      0.00000000
     20.89171429	     -6.16116155	     -7.32293520	      2.30029656	      1.02689555	      0.91477660	      0.49092294	     -0.91525753	      7.33632920	    -17.15058651	      7.25606039	      7.25606039	     16.74703702	      7.87298840	     -3.22531439	     36.33135141	    -10.94976850	     -0.78337200	     21.95533120	     21.95533120	      3.86451782	     -8.57277507	     11.60809314	    -10.21236067	      7.12245094	      4.93863701	     53.27104742	    -14.74586826	      6.37185173	    101.30464606	     44.05138569	      0.00000000	      0.00000000	    -21.56431418	     -8.15128219	      7.10327728	     30.15541867	     45.08568436	      0.00000000	      0.00000000
     20.90342857	     -6.16606573	     -7.19695181	      2.20064935	      1.02836111	      0.91329075	      0.48898101	     -1.25659777	      6.99111057	    -16.69702583	      7.96177429	      7.96177429	     17.54231148	      7.31864624	     -2.92965005	     35.84293007	    -10.61827573	     -1.00012212	     22.58613446	     22.58613446	      3.11944518	    -10.13898333	     10.67171124	     -9.95005500	      7.06435949	      4.83622155	     53.82397669	    -14.52797265	      6.77559444	    103.43307582	     44.00151055	      0.00000000	      0.00000000	    -22.43316972	     -8.15641260	      7.40285039	     30.27412674	     45.04153325	      0.00000000	      0.00000000
     20.91514286	     -6.07265697	     -7.03094880	      2.06271507	      1.03013342	      0.91215464	      0.48700367	     -1.88961607	      6.62821410	    -16.39937673	      8.32805252	      8.32805252	     18.01377215	      7.18819552	     -2.99211626	     35.29200881	    -10.38348972	     -1.43869092	     23.47680666	     23.47680666	      3.03009108	    -10.99911651	     10.44429927	     -9.67271393	      6.92125758	      4.90859319	     54.29798573	    -14.37081206	      6.80111108	    104.12129378	     43.98483304	      0.00000000	      0.00000000	    -23.10743229	     -8.14076858	      7.45199544	     30.05813511	     45.02587211	      0.00000000	      0.00000000
     20.92685714	     -6.06312703	     -6.88589473	      2.04539127	      1.03158214	      0.91093278	      0.48472253	     -1.92265365	      6.15772108	    -16.02401195	      9.64866752	      9.64866752	     18.81941517	      6.28370885	     -2.75900693	     34.85896113	     -9.95729409	     -1.14337274	     24.27857259	     24.27857259	      2.47519348	    -12.73871530	      9.51152206	     -9.52707238	      6.86271467	      4.48431218	     54.59241827	    -13.88804064	      7.30034043	    107.01552564	     43.89959876	      0.00000000	      0.00000000	    -23.65209593	     -7.99155332	      7.59585594	     30.09488732	     45.00802724	      0.00000000	      0.00000000
     20.93857143	     -5.91888728	     -6.70641908	      1.99880818	      1.03327651	      0.91034789	      0.48236257	     -2.25738955	      5.66282445	    -15.74328215	     10.71822976	     10.71822976	     19.74527835	      5.89119542	     -1.43952093	     34.14562273	     -9.58935332	     -1.01785333	     24.83732590	     24.83732590	      1.50530581	    -14.22239511	      6.90267433	     -9.46645476	      6.74405971	      4.90780852	     54.27983332	    -14.45039822	      7.12088555	    109.61667241	     43.93909023	      0.00000000	      0.00000000	    -23.63669005	     -8.16065759	      8.18315698	     29.96773281	     44.99771181	      0.00000000	      0.00000000
     20.95028571	     -5.71838531	     -6.49559487	      2.02097200	      1.03489889	      0.91014759	      0.47988286	     -2.68913006	      5.14109579	    -15.57536007	     11.63672449	     11.63672449	     20.02235554	      5.51061663	     -1.60751180	     33.58746412	     -9.22570364	     -0.90501338	     25.77417853	     25.77417853	      1.88914667	    -14.92311432	      6.65816032	     -9.41763929	      6.57363355	      4.55564422	     54.21228870	    -14.19324385	      7.28515727	    110.57061517	     43.91126721	      0.00000000	      0.00000000	    -23.78764626	     -8.12554090	      8.22140772	     29.84071279	     44.99529167	      0.00000000	      0.00000000
     20.96200000	     -5.61439009	     -6.23146748	      2.06137366	      1.03626606	      0.91018287	      0.47714947	     -2.74161897	      4.45836937	    -15.42744585	     13.06147030	     13.06147030	     20.28795829	      4.97013520	     -1.89348942	     33.11895012	     -8.75831200	     -0.69706155	     26.58723169	     26.58723169	      2.35801022	    -15.59973232	      6.48460847	     -9.36388049	      6.41546847	      4.17209025	     53.90402363	    -13.94816094	      7.49975359	    112.19513812	     43.86286943	      0.00000000	      0.00000000	    -23.75592332	     -8.04744840	      8.24184974	     29.69127691	     45.00088524	      0.00000000	      0.00000000
     20.97371429	     -5.64428519	     -5.90144140	      2.13204109	      1.03738385	      0.91049849	      0.47418250	     -2.48996073	      3.62702309	    -15.42828764	     14.74974410	     14.74974410	     20.39847635	      4.47365975	     -2.34016797	     32.73179578	     -8.18998733	     -0.48803513	     27.19671520	     27.19671520	      2.95721622	    -16.08926514	      6.54736455	     -9.21875977	      6.17252743	      4.02293223	     53.16535229	    -14.16555464	      7.54883542	    114.39163765	     43.80778710	      0.00000000	      0.00000000	    -23.26038989	     -8.01508675	      8.20601082	     29.49820915	     45.02781987	      0.00000000	      0.00000000
     20.98542857	     -5.48130336	     -5.60973523	      2.23129815	      1.03869122	      0.91151572	      0.47101438	     -2.57441600	      2.83266990	    -15.57434788	     16.17500867	     16.17500867	     20.07378815	      4.28237848	     -3.37380833	     32.14707832	     -7.66074340	     -0.27039582	     27.83084719	     27.83084719	      4.10145075	    -16.30899634	      7.51295998	     -9.29325498	      5.98802737	      4.71661608	     51.68899138	    -15.34823553	      6.78042775	    117.24968353	     43.79922619	      0.00000000	      0.00000000	    -22.03890761	     -8.12043061	      8.18714812	     28.60130439	     45.09437475	      0.00000000	      0.00000000
     20.99714286	     -5.40445067	     -5.31937215	      2.32852474	      1.03974677	      0.91261164	      0.46771642	     -2.28255679	      1.94859976	    -15.60993834	     18.12056438	     18.12056438	     19.89089685	      3.94808482	     -4.04296505	     31.55137132	     -7.16151220	     -0.24404632	     28.18488972	     28.18488972	      4.85484643	    -16.37587572	      7.39222144	     -9.24076845	      5.84368619	      4.20495826	     50.74790860	    -15.21935958	      6.92484618	    118.12585941	     43.77491822	      0.00000000	      0.00000000	    -21.46970358	     -8.06333531	      8.21283558	     28.59163253	     45.10766595	      0.00000000	      0.00000000
     21.00885714	     -5.38928176	     -5.03038115	      2.46048400	      1.04060104	      0.91389892	      0.46419068	     -1.76857059	      0.95977459	    -15.83695236	     20.32547812	     20.32547812	     19.38280353	      3.76920287	     -5.28310963	     30.94521547	     -6.60917457	     -0.16985489	     28.34333382	     28.34333382	      5.61942112	    -16.43224622	      7.57739863	     -9.16780231	      5.75464112	      4.02482851	     49.41166682	    -15.61314684	      6.80237033	    119.47196842	     43.74905328	      0.00000000	      0.00000000	    -20.57180597	     -8.04965984	      8.17298794	     28.61262285	     45.13951218	      0.00000000	      0.00000000
     21.02057143	     -5.28369523	     -4.74058835	      2.57174176	      1.04154926	      0.91552926	      0.46061844	     -1.39598186	     -0.04181530	    -16.04550100	     22.32943719	     22.32943719	     17.84225320	      3.44832121	     -8.86608234	     30.18439048	     -6.06224619	     -0.13912914	     28.44010780	     28.44010780	      6.70977267	    -16.37446843	      8.58998240	     -9.24305985	      5.60635882	      4.65574572	     47.21136048	    -16.82424719	      5.75284999	    121.91921317	     43.75266539	      0.00000000	      0.00000000	    -19.03688956	     -8.16969748	      8.10457681	     28.33525716	     45.20612148	      0.00000000	      0.00000000
